<svg xmlns="http://www.w3.org/2000/svg" width="1080" height="1080" viewBox="0 0 1080 1080" version="1.1">
	<path d="M 510.500 16.122 C 378.006 27.347, 263.691 103.794, 203.388 221.500 C 171.927 282.909, 158.339 350.219, 163.015 421.500 C 168.312 502.260, 192.253 584.649, 235.532 671.064 C 293.366 786.538, 386.902 909.973, 513.673 1038.111 L 540 1064.723 566.327 1038.111 C 731.494 871.163, 838.577 714.561, 887.103 569 C 926.503 450.815, 928.045 347.009, 891.769 255 C 845.579 137.848, 744.365 51.209, 622 24.081 C 586.632 16.240, 544.557 13.237, 510.500 16.122 M 355.536 420.180 C 354.618 422.840, 351.108 431.666, 348.504 437.862 C 346.228 443.276, 345.917 445.140, 346.418 450.362 C 346.885 455.234, 346.786 455.984, 345.938 454 C 345.351 452.625, 344.530 446.469, 344.115 440.320 C 343.372 429.313, 342.282 426, 339.403 426 C 334.760 426, 332.987 445.192, 336.405 458.459 C 338.275 465.716, 339.138 488.205, 337.605 489.719 C 337.170 490.148, 335.393 488.891, 333.657 486.925 C 329.298 481.990, 325.731 479.997, 321.285 480.015 C 317.025 480.033, 315.645 480.713, 314.706 483.256 C 314.225 484.560, 315.051 485.638, 317.913 487.445 C 322.395 490.274, 336.772 505.995, 341.057 512.751 C 343.728 516.962, 344 518.189, 344 526.010 L 344 534.628 338 534.194 C 334.700 533.955, 332 534.112, 332 534.542 C 332 535.785, 345.147 552.924, 351.041 559.363 L 356.406 565.225 361.300 554.863 C 375.767 524.232, 377.292 520.108, 377.530 511 C 377.652 506.325, 378.158 493.624, 378.655 482.775 L 379.558 463.051 384.984 452.531 C 388.957 444.829, 390.113 441.713, 389.302 440.902 C 388.609 440.209, 387.597 440.126, 386.607 440.680 C 383.337 442.510, 373.979 454.677, 372.324 459.250 C 371.378 461.863, 370.182 464, 369.665 464 C 368.227 464, 369.821 448.004, 372.083 439.726 C 375.031 428.940, 375.335 426.494, 374.029 424.054 C 372.915 421.973, 372.726 421.938, 371.010 423.491 C 370.004 424.402, 368.891 426.352, 368.538 427.824 C 368.185 429.296, 366.039 434.325, 363.770 439 C 361.501 443.675, 359.103 450.200, 358.441 453.500 L 357.238 459.500 357.119 451.440 C 357.042 446.240, 357.732 440.488, 359.062 435.225 C 361.672 424.904, 361.404 419.628, 358.246 419.180 C 357.006 419.004, 355.786 419.454, 355.536 420.180 M 742.212 433.750 C 740.295 436.490, 732.386 456.994, 729.580 466.500 L 728.103 471.500 728.398 465.500 C 728.578 461.834, 729.698 457.166, 731.276 453.500 C 732.697 450.200, 734.167 444.755, 734.542 441.400 C 735.132 436.127, 734.987 435.209, 733.471 434.627 C 732.491 434.251, 730.683 434.633, 729.372 435.492 C 727.006 437.042, 723 443.798, 723 446.238 C 723 446.963, 721.434 450.823, 719.521 454.816 C 717.210 459.638, 715.541 465.188, 714.550 471.343 C 712.809 482.168, 708.220 495.870, 705.842 497.345 C 704.518 498.167, 703.618 497.683, 701.360 494.937 C 697.214 489.894, 691.898 485.045, 688.637 483.334 C 684.587 481.209, 676.058 480.607, 673 482.231 C 669.267 484.214, 669.910 486.958, 675 490.756 C 688.099 500.530, 705.091 521.158, 703.064 524.826 C 702.556 525.747, 700.871 527.961, 699.320 529.746 C 696.579 532.901, 696.139 533.034, 683.615 534.464 C 676.528 535.274, 670.588 536.079, 670.414 536.252 C 670.240 536.426, 671.196 541.953, 672.539 548.534 C 673.881 555.115, 674.984 561.513, 674.989 562.750 C 674.999 564.726, 675.518 565.002, 679.250 565.017 C 685.821 565.044, 695.966 567.511, 703.438 570.899 C 709.838 573.801, 710.185 574.128, 709.549 576.661 C 708.891 579.282, 708.977 579.254, 713.188 575.490 C 724.646 565.246, 740.061 546.866, 750.324 531.211 C 761.116 514.749, 763.687 509.348, 764.429 501.588 C 765.169 493.836, 769.656 483.002, 775.487 474.886 C 779.579 469.190, 779.667 468.667, 776.983 465.983 C 775.108 464.108, 774.759 464.073, 772.021 465.489 C 770.401 466.327, 766.615 470.095, 763.609 473.864 C 757.189 481.909, 755.193 484, 753.929 484 C 751.136 484, 755.493 473.476, 763.371 461.195 C 767.718 454.419, 767.964 453.696, 766.771 451.195 C 765.945 449.464, 764.550 448.391, 762.871 448.196 C 760.756 447.950, 759.160 449.098, 754.527 454.196 C 751.376 457.663, 747.246 463.650, 745.349 467.500 L 741.901 474.500 742.484 468.392 C 743.058 462.381, 745.763 452.842, 749.976 441.972 C 751.676 437.586, 751.905 435.881, 751.084 433.722 C 749.631 429.900, 744.895 429.915, 742.212 433.750 M 477.402 448.316 C 475.036 450.307, 474.151 452.350, 472.614 459.370 C 471.576 464.106, 470.039 468.548, 469.198 469.241 C 467.852 470.349, 467.747 469.962, 468.321 466 C 468.680 463.525, 469.250 460.375, 469.589 459 C 470.089 456.969, 469.294 457.480, 465.352 461.727 C 462.683 464.602, 455.775 470.046, 450 473.826 C 435.013 483.634, 435.669 482.521, 436.202 497.213 C 436.598 508.139, 437.001 510.371, 439.840 517.366 C 442.701 524.416, 442.964 525.896, 442.374 531.649 L 441.717 538.067 436.108 537.435 C 430.277 536.777, 419.298 538.900, 418.046 540.926 C 417.694 541.495, 416.142 550.732, 414.596 561.453 L 411.785 580.947 417.471 587.424 C 424.021 594.885, 420.709 593.981, 452.786 597.068 L 474.073 599.116 477.179 596.503 C 487.701 587.649, 510.961 581.957, 530.404 583.478 C 549.637 584.982, 565.208 591.135, 575.032 601.113 L 580.828 607 593.202 607 C 604.719 607, 627.883 604.808, 629.966 603.521 C 630.470 603.209, 632.531 600.242, 634.545 596.926 L 638.206 590.899 638.242 566.199 C 638.282 537.500, 637.112 528.730, 633.169 528.170 C 630.165 527.744, 621.564 531.970, 616.347 536.435 L 612.256 539.937 584.464 543.442 L 556.672 546.947 549.540 543.422 C 537.334 537.390, 526.778 537.751, 515.421 544.590 L 509.758 548 493.007 548 L 476.256 548 475.583 543.792 C 475.213 541.478, 475.224 535.301, 475.609 530.065 C 476.209 521.879, 476.620 520.300, 478.537 518.792 C 482.211 515.902, 486.594 507.932, 488.471 500.725 C 489.441 496.999, 491.514 492.049, 493.077 489.725 C 495.591 485.987, 495.747 485.328, 494.433 484.010 C 492.147 481.715, 487.999 484.502, 485.146 490.248 C 483.823 492.914, 482.335 494.707, 481.747 494.344 C 481.038 493.905, 480.913 486.428, 481.358 471.099 C 481.719 458.669, 481.630 447.909, 481.159 447.187 C 480.491 446.161, 479.669 446.408, 477.402 448.316" stroke="none" fill="black" fill-rule="evenodd"/>
</svg>